<svg xmlns="http://www.w3.org/2000/svg" xmlns:xlink="http://www.w3.org/1999/xlink"><symbol id="facebook" viewBox="0 0 64 64"><style type="text/css">
	.st0{fill:#0072FF;}
</style><g id="GUIDES_64"/><g id="Layer_3"/><g id="Layer_2"><path class="st0" d="M20.1,36h3.4c0.3,0,0.6,0.3,0.6,0.6V58c0,1.1,0.9,2,2,2h7.8c1.1,0,2-0.9,2-2V36.6c0-0.3,0.3-0.6,0.6-0.6h5.6   c1,0,1.9-0.7,2-1.7l1.3-7.8c0.2-1.2-0.8-2.4-2-2.4h-6.6c-0.5,0-0.9-0.4-0.9-0.9v-5c0-1.3,0.7-2,2-2h5.9c1.1,0,2-0.9,2-2V6.2   c0-1.1-0.9-2-2-2h-7.1c-13,0-12.7,10.5-12.7,12v7.3c0,0.3-0.3,0.6-0.6,0.6h-3.4c-1.1,0-2,0.9-2,2v7.8C18.1,35.1,19,36,20.1,36z"/></g></symbol><symbol id="instagram" viewBox="0 0 64 64"><style type="text/css">
	.st0{fill:#0072FF;}
</style><g id="GUIDES_64"/><g id="Layer_3"/><g id="Layer_2"><path class="st0" d="M20.7,56h22.7c7,0,12.7-5.8,12.7-12.9V20.9C56,13.8,50.3,8,43.3,8H20.7C13.7,8,8,13.8,8,20.9v22.2   C8,50.2,13.7,56,20.7,56z M46,16c1.6,0,2.9,1.3,2.9,3c0,1.7-1.3,3-2.9,3s-2.9-1.3-2.9-3C43.1,17.3,44.4,16,46,16z M32,20   c6.5,0,11.7,5.4,11.7,12S38.5,44,32,44s-11.7-5.4-11.7-12S25.5,20,32,20z"/></g></symbol></svg>